<?xml version="1.0" encoding="utf-8"?>
<!DOCTYPE svg PUBLIC "-//W3C//DTD SVG 1.0//EN" "http://www.w3.org/TR/2001/REC-SVG-20010904/DTD/svg10.dtd">
<svg version="1.0" xmlns="http://www.w3.org/2000/svg" width="500px" height="500px" viewBox="0 0 500 500" preserveAspectRatio="xMidYMid meet">
 <g fill="#0cbfde">
  <path d="M0 250 l0 -250 250 0 250 0 0 250 0 250 -250 0 -250 0 0 -250z m289.05 148.55 c13.10 -2.90 22.15 -10.40 28.80 -23.80 1.70 -3.35 3.05 -6.85 26.10 -66.75 14 -36.45 16.30 -42.75 15.55 -42.90 -1.55 -0.25 -10.80 2.25 -14.15 3.85 -6.55 3.15 -11.55 7.85 -15.95 15.20 -2.95 4.95 -5 10.30 -11.10 29 l-4.85 14.90 -1.85 -0.15 -1.80 -0.15 -1.95 -6 c-14.45 -44.65 -17.45 -53.30 -18.75 -54.15 -1.15 -0.75 -2.75 -0.85 -12.20 -0.85 -9 0 -11 0.15 -11.60 0.75 -0.65 0.65 -0.25 2 3.25 11.25 2.20 5.80 4.30 11.30 4.65 12.25 0.35 0.95 2.65 6.95 5.05 13.25 2.40 6.35 5.20 13.75 6.25 16.50 7.15 18.80 9.20 24.20 11.20 29.50 1.35 3.50 2.30 6.85 2.30 8 0 1.45 -2.25 7.65 -7.75 21.40 -4.25 10.65 -7.75 19.45 -7.75 19.60 0 0.45 2.25 0.25 6.55 -0.70z m-161 -19.70 c0.45 -1.60 0.40 -6.40 -0.05 -19.60 -0.75 -20 -0.40 -85.65 0.45 -100.50 2.50 -42.10 4.75 -68.40 8.05 -93.25 3 -22.55 3.10 -30.90 0.65 -40.75 -0.85 -3.20 -1.05 -3.60 -2.80 -4.50 l-1.95 -1 -1.30 1.60 c-1.65 1.95 -4.55 7.35 -7.20 13.40 -2.75 6.25 -10.45 25.35 -10.25 25.55 0.10 0.10 0.80 -1.35 1.60 -3.20 2.10 -4.85 5.30 -10.45 9.85 -17.50 3.75 -5.75 4.10 -6.10 5.65 -6.10 l1.60 0 0.30 3.20 c0.55 5.65 -0.50 17.55 -3.15 35.80 -3.15 21.55 -6.40 62.80 -7.80 98.50 -1.05 26.70 -0.70 96.65 0.55 102.40 0.95 4.65 1.85 6.75 3.30 7.75 1.45 1.05 1.80 0.75 2.50 -1.80z m229.60 -15.50 c3.40 -2 5.10 -5.15 5.10 -9.35 0 -2.85 -0.20 -3.55 -1.65 -5.65 -2 -2.85 -3.20 -3.70 -6.60 -4.60 -2.30 -0.60 -2.85 -0.60 -5.35 0.25 -3.20 1.05 -5.45 2.95 -6.65 5.75 -1.70 3.70 -1.30 7.50 1.05 10.75 3.20 4.45 9.30 5.65 14.10 2.85z m-155.15 -11.35 c7.75 -2.20 15.50 -7.05 19.90 -12.50 1.95 -2.45 2.60 -2.95 3.95 -2.95 1.35 -0.05 1.75 0.30 3.15 2.50 3.90 6.40 10.65 11.05 18.40 12.70 l1.60 0.35 0 -43.30 c0 -34.30 -0.15 -43.30 -0.60 -43.30 -1.55 0 -5.90 1.50 -8.90 3 -3.65 1.85 -9.85 7.70 -10.95 10.40 -0.60 1.40 -0.90 1.60 -2.50 1.60 -1.60 0 -2.15 -0.40 -4.75 -3.30 -6.80 -7.60 -15.25 -11.75 -26.70 -13.15 -7.90 -1 -18.10 1.45 -25.15 6 -9.10 5.90 -15.20 14.65 -18.30 26.20 -1.10 4.20 -1.30 6.10 -1.35 12 -0.05 6.15 0.15 7.65 1.35 12.40 0.80 2.95 2.05 6.85 2.85 8.60 5.25 11.65 16 20.55 28 23.15 1.50 0.30 3.20 0.70 3.75 0.80 2.50 0.60 12.65 -0.15 16.25 -1.20z m-39.70 -97.60 c8.05 -2.95 15 -10.45 18.40 -19.80 2.20 -6.20 2.90 -11.05 3.15 -22.70 l0.25 -10.90 2.15 0 2.15 0 9.25 13.15 c5.05 7.20 12.75 18.15 17.10 24.35 4.35 6.20 8.40 11.80 9.05 12.50 l1.20 1.25 14.40 0.15 c11.15 0.10 14.55 0 15.20 -0.50 0.70 -0.60 -0.05 -1.85 -7.40 -12.15 -12.25 -17.20 -17.60 -22.90 -26.90 -28.75 -4.35 -2.75 -11.70 -5.95 -14.60 -6.35 -2.15 -0.30 -2.20 -0.35 -2.20 -2.15 l0 -1.85 4.20 -0.35 c12.80 -0.95 22.20 -4.70 29.10 -11.55 4.65 -4.55 6.95 -8.75 8.80 -15.80 1.55 -5.90 1.55 -16.90 -0.05 -22.70 -3.30 -12.45 -11.55 -21.30 -23.20 -25 -2.15 -0.70 -6.55 -1.75 -9.75 -2.35 -5.45 -1 -7.50 -1.05 -29.40 -1.10 -22.55 -0.05 -23.65 0 -24.65 0.90 l-1.05 0.95 0 66.20 0 66.20 1.15 -0.35 c0.60 -0.15 2.25 -0.75 3.65 -1.30z m161.75 0.35 c13.25 -2.45 22.90 -8.40 29.50 -18.10 3.15 -4.65 5.40 -9.90 4.50 -10.80 -0.80 -0.80 -22.05 -1.15 -23.55 -0.35 -0.55 0.30 -1.45 1.45 -2.05 2.55 -1.65 3.30 -4.70 6.20 -8.10 7.75 -2.95 1.40 -3.45 1.45 -10.10 1.45 -6.70 0 -7.10 -0.05 -9.65 -1.40 -5.45 -2.85 -8.40 -6.80 -9.85 -13.10 -0.45 -1.85 -0.75 -4.40 -0.65 -5.60 l0.15 -2.25 32.40 -0.05 32.45 -0.10 1 -1.25 c0.95 -1.15 1 -1.70 0.75 -6.75 -0.90 -18.10 -11.70 -32.15 -29.05 -38 -7.55 -2.55 -16 -3.60 -22.40 -2.75 -13.30 1.65 -23 6.10 -31.20 14.20 -6.60 6.55 -10.15 13.70 -11.95 24.15 -0.95 5.35 -0.95 7.25 0 13.05 2.65 16.35 12.50 28.70 27.35 34.25 3.20 1.25 10.70 3.15 13.65 3.50 4.05 0.50 13.05 0.30 16.80 -0.40z"/>
  <path d="M193.75 332.35 c-7.30 -2.45 -11.70 -7.15 -14.15 -15.10 -0.90 -3.05 -1.05 -13.50 -0.15 -16.75 1.70 -6.40 5.85 -11.50 11.40 -14.15 3.30 -1.55 3.60 -1.60 9.95 -1.60 l6.50 0 3.80 1.90 c6.75 3.30 10.45 8.95 11.50 17.30 1.60 12.85 -2.80 22.90 -11.90 27.15 -3 1.40 -3.85 1.55 -9.15 1.70 -3.95 0.15 -6.45 0 -7.80 -0.45z"/>
  <path d="M184.50 163.50 l0 -19.10 11.90 0.20 c10.80 0.20 12.10 0.30 14.65 1.30 3.80 1.50 7.05 4.45 8.50 7.70 1.10 2.40 1.20 3.35 1.20 9.65 0 6.65 -0.05 7.15 -1.40 9.85 -1.80 3.65 -5.05 6.50 -9 7.95 -2.75 0.95 -4.40 1.10 -14.45 1.30 l-11.40 0.25 0 -19.10z"/>
  <path d="M295.10 198.90 c0.35 -6 4.10 -11.80 9.25 -14.45 2.10 -1.05 3.20 -1.20 8.90 -1.35 5.70 -0.15 6.85 -0.05 9.35 0.90 3.55 1.30 7.25 4.60 8.90 7.80 0.90 1.80 1.30 3.45 1.40 6.35 l0.20 3.85 -19.10 0 -19.10 0 0.20 -3.10z"/>
 </g>
 <g fill="#ffffff">
  <path d="M280 400.50 c0 -0.25 3.65 -9.55 8.05 -20.60 4.45 -11.10 8.20 -20.55 8.30 -21 0.15 -0.45 -0.55 -2.90 -1.50 -5.50 -1 -2.55 -3.60 -9.50 -5.85 -15.40 -2.25 -5.90 -4.95 -13 -6 -15.75 -1.05 -2.75 -3.85 -10.15 -6.25 -16.50 -2.40 -6.30 -4.90 -12.85 -5.50 -14.50 -9.05 -23.90 -9.10 -23.95 -7.40 -25.30 0.65 -0.55 3.40 -0.70 13.10 -0.70 10.80 0 12.50 0.10 13.65 0.85 1.15 0.75 2.30 3.90 9.05 24.50 4.30 13 8.60 26.25 9.60 29.40 1.05 3.15 2.05 5.95 2.25 6.20 0.25 0.20 2.60 -6.30 5.30 -14.50 6.10 -18.75 8.15 -24.10 11.10 -29.05 4.40 -7.35 9.40 -12.05 15.95 -15.20 4.15 -2 12.10 -3.95 16 -3.95 l3.10 0 -0.45 1.40 c-0.30 1.10 -30.90 80.65 -39.65 103.15 -2.65 6.85 -4.20 10 -7.20 14.65 -5.95 9.25 -14.15 14.90 -25.10 17.35 -4.65 1 -10.55 1.25 -10.55 0.45z"/>
  <path d="M346.20 365.30 c-3.15 -1.45 -5.05 -3.85 -6.05 -7.65 -1.80 -7 1.55 -13.50 8 -15.35 3.35 -1 4.35 -1 7.75 -0.10 3.50 0.95 4.70 1.80 6.70 4.65 1.60 2.30 1.65 2.60 1.65 7.20 0 4.45 -0.10 4.95 -1.50 7.20 -2.20 3.50 -5.60 5.25 -10.45 5.25 -2.70 0 -4.15 -0.30 -6.10 -1.20z"/>
  <path d="M184.75 354.70 c-0.55 -0.10 -2.25 -0.50 -3.75 -0.80 -12 -2.60 -22.75 -11.50 -28 -23.15 -0.80 -1.75 -2.05 -5.65 -2.85 -8.60 -1.30 -4.95 -1.40 -6.10 -1.35 -13.90 0 -7.55 0.20 -9.05 1.35 -13.50 3.10 -11.55 9.20 -20.30 18.30 -26.20 7.45 -4.80 18.30 -7.20 27.60 -6.10 11.85 1.45 19.85 5.30 27 12.95 1.95 2.10 3.65 3.60 3.80 3.25 1.30 -3.50 7.25 -9.45 11.85 -11.75 3.05 -1.55 9.05 -3.40 11.20 -3.40 l1.10 0 0 45.25 c0 24.90 -0.10 45.25 -0.25 45.25 -0.15 0 -2.05 -0.35 -4.15 -0.80 -7.75 -1.55 -14.70 -6.25 -18.55 -12.55 l-1.60 -2.60 -2.45 2.90 c-4.65 5.55 -12.25 10.35 -20 12.60 -2.85 0.80 -5.45 1.10 -11 1.25 -4 0.05 -7.70 0.05 -8.25 -0.10z m24.55 -25.15 c8.55 -4 13.25 -13.90 11.75 -24.80 -1.05 -7.70 -5 -13.45 -11.45 -16.60 -3.65 -1.80 -4 -1.90 -8.80 -1.90 -4.65 0 -5.35 0.15 -8.45 1.60 -5.60 2.65 -9.75 7.85 -11.40 14.15 -0.30 1.25 -0.55 4.30 -0.55 6.80 0 11.05 5.25 18.85 14.85 22.05 1.30 0.40 3.50 0.60 6.40 0.45 3.60 -0.20 5.05 -0.55 7.65 -1.75z"/>
  <path d="M156.50 190.05 l0 -67.90 1.05 -0.95 c1 -0.90 2.15 -0.95 26.15 -0.90 23.55 0 25.40 0.10 30.90 1.10 3.20 0.60 7.60 1.65 9.75 2.35 11.65 3.70 19.90 12.55 23.25 25 0.90 3.35 1.05 5.40 1.10 12.75 0 10 -0.80 14.20 -4 20.95 -2.40 5 -8.35 11.05 -13.45 13.65 -6.10 3.10 -13.65 5.10 -21.55 5.70 -2.30 0.20 -4.20 0.50 -4.20 0.70 0 0.20 1 0.50 2.20 0.65 2.90 0.40 10.25 3.60 14.60 6.35 5.25 3.30 10.40 7.70 14.55 12.45 5.75 6.55 20.90 28.05 20.80 29.50 -0.15 2.55 -0.65 2.60 -17.75 2.45 l-15.90 -0.15 -1.20 -1.25 c-0.65 -0.70 -4.70 -6.30 -9.05 -12.50 -21.80 -31.10 -26.40 -37.50 -27 -37.50 -0.50 0 -0.70 2.55 -0.90 10.90 -0.30 14.65 -1.80 21.70 -6.15 29.15 -4.60 7.80 -13.10 13.85 -21.30 15.10 l-1.90 0.30 0 -67.90z m52.35 -10.55 c3.95 -1.40 7.20 -4.25 9 -7.90 1.25 -2.60 1.40 -3.35 1.40 -8.35 0 -6.65 -1.10 -9.65 -4.60 -12.75 -4.10 -3.60 -6.45 -4.15 -18.25 -4.40 l-10.40 -0.20 0 17.60 0 17.65 9.90 -0.30 c8.40 -0.20 10.30 -0.40 12.95 -1.35z"/>
  <path d="M306.25 256.65 c-2.95 -0.35 -10.45 -2.25 -13.65 -3.50 -14.85 -5.55 -24.70 -17.90 -27.35 -34.25 -1.35 -8.25 -0.75 -15.70 2 -24.25 3.40 -10.70 12.15 -20.15 23.55 -25.45 7.35 -3.40 18.90 -5.55 26.95 -5 14.50 1 25.85 5.70 33.80 14.10 7.60 8.05 10.85 16.25 11.30 28.45 0.25 6.50 0.20 7.10 -0.75 8.25 l-1 1.25 -32.45 0.10 c-27.15 0.10 -32.40 0.25 -32.55 0.85 -0.30 1.30 1.45 7.45 2.75 9.90 1.60 2.95 4.20 5.40 7.75 7.25 2.45 1.30 3.10 1.40 8.15 1.40 5 0 5.80 -0.15 8.60 -1.45 3.40 -1.55 6.45 -4.45 8.10 -7.75 0.60 -1.10 1.50 -2.25 2 -2.55 1.25 -0.65 24 -0.70 25.75 0 2 0.75 2.05 2.40 0.35 6.70 -5.40 13.50 -17.25 22.50 -33.50 25.55 -3.80 0.70 -15.50 0.95 -19.80 0.40z m25.15 -58.65 c-0.50 -5.15 -4.85 -10.50 -10.30 -12.50 -2.40 -0.90 -3.65 -1.05 -7.85 -0.90 -5.65 0.20 -8.40 1.25 -11.60 4.35 -1.95 1.95 -4.55 6.95 -5 9.70 l-0.25 1.75 17.60 -0.05 17.60 0 -0.20 -2.35z"/>
 </g>
 <g fill="#ffde59">
  <path d="M124.05 382.20 c-1.45 -1.05 -2.35 -3.15 -3.35 -7.85 -1.20 -5.70 -1.55 -78.10 -0.50 -105.35 1.35 -35.55 4.65 -76.85 7.75 -98.50 2.25 -15.40 3.10 -23.35 3.15 -29.75 0 -3.20 -0.10 -5.90 -0.25 -6.05 -0.30 -0.30 -7.75 11.10 -10.45 16.05 -1.15 2.20 -2.85 5.55 -3.70 7.50 -1.25 2.85 -1.80 3.55 -2.80 3.65 -1.75 0.20 -3 -1.10 -2.40 -2.55 9.90 -25.05 14.45 -35.15 17.85 -39.70 1 -1.40 1.50 -1.65 3.30 -1.65 1.20 0 2.80 0.40 3.70 0.95 1.35 0.85 1.65 1.50 2.40 4.65 2.40 10.55 2.25 21.10 -0.75 43.40 -3.35 25.40 -6.05 56.75 -8.10 94.75 -0.70 13.50 -0.90 81.75 -0.25 104 0.45 15.70 0.25 16.90 -2.65 17.15 -1.05 0.10 -2.25 -0.20 -2.95 -0.70z"/>
 </g>
</svg>